<svg width="17" height="14" viewBox="0 0 17 14" fill="none" xmlns="http://www.w3.org/2000/svg">
<path d="M7.81741 0.73112C7.73199 0.58374 7.54695 0.511905 7.40532 0.497192C7.23581 0.499959 7.0814 0.594806 7.001 0.745424L5.34381 3.84766L6.21293 4.84398L7.0165 3.54806C7.18738 3.27266 7.63873 3.27266 7.80961 3.54806L8.61324 4.84395L9.55684 3.73687L7.81741 0.73112Z" fill="#415167"/>
<path d="M10.337 5.09957L10.0619 4.62341L8.95322 5.96998C8.86176 6.09647 8.72917 6.1791 8.55817 6.16293C8.40316 6.15738 8.26098 6.07429 8.17866 5.94137L7.40501 4.6918L6.63135 5.94137C6.54904 6.07432 6.40686 6.15738 6.25185 6.16293C6.24591 6.1634 6.23995 6.1634 6.23446 6.1634C6.08541 6.1634 5.94504 6.09184 5.85676 5.96998L4.84762 4.76147L0.40625 13.0299C0.328525 13.1762 0.332177 13.3535 0.416769 13.4961C0.501361 13.6392 0.654094 13.7265 0.818689 13.7265H6.09131C5.95687 13.3441 5.98043 12.9173 6.18183 12.5572L10.337 5.09957Z" fill="#415167"/>
<path d="M12.0418 5.4763C11.8755 5.17912 11.3887 5.17912 11.2224 5.4763L10.2433 7.22492L11.6321 8.74975L13.0208 7.22492L12.0418 5.4763Z" fill="#415167"/>
<path d="M16.2684 13.023L13.4853 8.08838L11.9762 9.77965C11.8871 9.88708 11.7554 9.94934 11.6165 9.94934C11.4775 9.94934 11.3458 9.88708 11.2567 9.77965L9.74764 8.08838L6.99571 13.023C6.91389 13.1692 6.91526 13.3481 6.99937 13.4929C7.08347 13.6376 7.23704 13.7266 7.40344 13.7266H15.8606C16.027 13.7266 16.1806 13.6376 16.2647 13.4928C16.3488 13.348 16.3502 13.1691 16.2684 13.023Z" fill="#415167"/>
</svg>
